<svg xmlns="http://www.w3.org/2000/svg" version="1.1" xmlns:xlink="http://www.w3.org/1999/xlink" xmlns:svgjs="http://svgjs.dev/svgjs" width="1920" height="1080" preserveAspectRatio="none" viewBox="0 0 1920 1080"><g mask="url(&quot;#SvgjsMask1003&quot;)" fill="none"><rect width="1920" height="1080" x="0" y="0" fill="rgba(255, 183, 43, 1)"></rect><path d="M0 0L334.65 0L0 370.8z" fill="rgba(255, 255, 255, .1)"></path><path d="M0 370.8L334.65 0L1076.94 0L0 739.81z" fill="rgba(255, 255, 255, .075)"></path><path d="M0 739.81L1076.94 0L1232.6000000000001 0L0 915.3z" fill="rgba(255, 255, 255, .05)"></path><path d="M0 915.3L1232.6000000000001 0L1419.3000000000002 0L0 984.38z" fill="rgba(255, 255, 255, .025)"></path><path d="M1920 1080L1677.04 1080L1920 676.1600000000001z" fill="rgba(0, 0, 0, .1)"></path><path d="M1920 676.1600000000001L1677.04 1080L1020.8199999999999 1080L1920 610.32z" fill="rgba(0, 0, 0, .075)"></path><path d="M1920 610.32L1020.8199999999999 1080L942.27 1080L1920 315.12000000000006z" fill="rgba(0, 0, 0, .05)"></path><path d="M1920 315.1200000000001L942.27 1080L319.64 1080L1920 299.66000000000014z" fill="rgba(0, 0, 0, .025)"></path></g><defs><mask id="SvgjsMask1003"><rect width="1920" height="1080" fill="#ffffff"></rect></mask></defs></svg>